<?xml version="1.0" standalone="no"?>
<!DOCTYPE svg PUBLIC "-//W3C//DTD SVG 20010904//EN"
 "http://www.w3.org/TR/2001/REC-SVG-20010904/DTD/svg10.dtd">
<svg version="1.0" xmlns="http://www.w3.org/2000/svg"
 width="32.000000pt" height="32.000000pt" viewBox="0 0 32.000000 32.000000"
 preserveAspectRatio="xMidYMid meet">
<metadata>
Created by potrace 1.15, written by Peter Selinger 2001-2017
</metadata>
<g transform="translate(0.000000,32.000000) scale(0.100000,-0.100000)"
fill="#000000" stroke="none">
<path d="M0 263 l0 -58 17 33 c15 31 50 62 83 75 8 3 -11 6 -42 6 l-58 1 0
-57z"/>
<path d="M238 303 c19 -9 44 -32 58 -52 l24 -36 0 53 0 52 -57 0 -58 0 33 -17z"/>
<path d="M56 198 c37 -119 53 -126 82 -38 14 40 17 60 9 57 -6 -2 -17 -23 -24
-47 -7 -23 -14 -45 -17 -47 -2 -2 -12 18 -21 46 -9 28 -21 51 -26 51 -6 0 -7
-10 -3 -22z"/>
<path d="M170 212 c0 -5 10 -8 23 -8 20 1 22 -3 22 -52 0 -28 3 -52 8 -52 4 0
7 23 7 50 0 43 3 52 23 60 17 7 11 9 -30 9 -29 1 -53 -3 -53 -7z"/>
<path d="M0 58 l0 -58 52 0 53 0 -36 24 c-20 14 -43 39 -52 58 l-17 33 0 -57z"/>
<path d="M298 70 c-9 -16 -32 -39 -50 -50 l-33 -20 53 0 52 0 0 50 c0 28 -1
50 -2 50 -2 0 -11 -14 -20 -30z"/>
</g>
</svg>
